# File created by Blade
# Date/Time:  Wed Jan 21 14:58:19 2015
#---------------------------------------------------------
:version 1.10
:name HOM
:units
  mass 1.0
  length 1.000000
  angle deg
:documentation
     Acclaim Skeleton File
:root
   axis xyz
   order TX TY TZ RX RY RZ
   position 0.000000 0.000000 0.000000
   orientation 0 0 0
:bonedata
   begin
      id 1
      name Spine_dum
      direction 0.000000 1.000000 0.000000
      length 7.067664
      axis 0.0 0.0 0.0 xyz
   end
   begin
      id 2
      name LeftUpLeg_dum
      direction 1.000000 0.000000 0.000000
      length 4.013002
      axis 0.0 0.0 0.0 xyz
   end
   begin
      id 3
      name RightUpLeg_dum
      direction -1.000000 0.000000 0.000000
      length 4.013002
      axis 0.0 0.0 0.0 xyz
   end
   begin
      id 4
      name Spine
      direction 0.000000 1.000000 0.000000
      length 0.000000
      axis 0.0 0.0 0.0 xyz
      dof rx ry rz
   end
   begin
      id 5
      name Spine_dum1
      direction 0.000000 1.000000 0.000000
      length 15.039886
      axis 0.0 0.0 0.0 xyz
   end
   begin
      id 6
      name Spine_dum2
      direction 0.000000 1.000000 0.000000
      length 10.530368
      axis 0.0 0.0 0.0 xyz
   end
   begin
      id 7
      name Spine_dum3
      direction 0.000000 1.000000 0.000000
      length 10.530368
      axis 0.0 0.0 0.0 xyz
   end
   begin
      id 8
      name Head
      direction 0.000000 1.000000 0.000000
      length 4.527550
      axis 0.0 0.0 0.0 xyz
      dof rx ry rz
   end
   begin
      id 9
      name LeftShoulder
      direction 1.000000 0.000000 0.000000
      length 7.028855
      axis 0.0 0.0 -90.0 xyz
      dof rx ry rz
   end
   begin
      id 10
      name LeftArm
      direction 1.000000 0.000000 0.000000
      length 10.797705
      axis 0.0 0.0 -90.0 xyz
      dof rx ry rz
   end
   begin
      id 11
      name LeftForeArm
      direction 1.000000 0.000000 0.000000
      length 7.907442
      axis 0.0 0.0 -90.0 xyz
      dof ry rz rx
   end
   begin
      id 12
      name LeftHand
      direction 0.000000 0.000000 0.000000
      length 0.000000
      axis 0.0 0.0 -90.0 xyz
      dof rx ry rz
   end
   begin
      id 13
      name LeftHand_dum1
      direction 0.000000 0.000000 0.000000
      length 0.000000
      axis 0.0 0.0 -90.0 xyz
   end
   begin
      id 14
      name LeftHand_dum2
      direction 1.000000 0.000000 0.000000
      length 3.937000
      axis 0.0 0.0 -90.0 xyz
   end
   begin
      id 15
      name LeftHandThumb1
      direction 0.000000 0.000000 1.000000
      length 3.937000
      axis 0.0 0.0 -90.0 xyz
      dof rx rz ry
   end
   begin
      id 16
      name RightShoulder
      direction -1.000000 0.000000 0.000000
      length 7.028855
      axis 0.0 0.0 90.0 xyz
      dof rx ry rz
   end
   begin
      id 17
      name RightArm
      direction -1.000000 0.000000 0.000000
      length 10.797705
      axis 0.0 0.0 90.0 xyz
      dof rx ry rz
   end
   begin
      id 18
      name RightForeArm
      direction -1.000000 0.000000 0.000000
      length 7.907442
      axis 0.0 0.0 90.0 xyz
      dof ry rz rx
   end
   begin
      id 19
      name RightHand
      direction 0.000000 0.000000 0.000000
      length 0.000000
      axis 0.0 0.0 90.0 xyz
      dof rx ry rz
   end
   begin
      id 20
      name RightHand_dum1
      direction 0.000000 0.000000 0.000000
      length 0.000000
      axis 0.0 0.0 90.0 xyz
   end
   begin
      id 21
      name RightHand_dum2
      direction -1.000000 0.000000 0.000000
      length 3.937000
      axis 0.0 0.0 90.0 xyz
   end
   begin
      id 22
      name RightHandThumb1
      direction 0.000000 0.000000 1.000000
      length 3.937000
      axis 0.0 0.0 90.0 xyz
      dof rx rz ry
   end
   begin
      id 23
      name LeftUpLeg
      direction 0.000000 -1.000000 0.000000
      length 16.899758
      axis 0.0 0.0 0.0 xyz
      dof rx ry rz
   end
   begin
      id 24
      name LeftLeg
      direction 0.000000 -1.000000 0.000000
      length 17.389183
      axis 0.0 0.0 0.0 xyz
      dof rx ry rz
   end
   begin
      id 25
      name LeftFoot
      direction 0.000000 -0.258819 0.965926
      length 4.924528
      axis 15.0 0.0 0.0 xyz
      dof rx ry rz
   end
   begin
      id 26
      name LeftToeBase
      direction 0.000000 0.000000 1.000000
      length 2.952750
      axis 0.0 0.0 0.0 xyz
      dof rx ry rz
   end
   begin
      id 27
      name RightUpLeg
      direction 0.000000 -1.000000 0.000000
      length 16.899758
      axis 0.0 0.0 0.0 xyz
      dof rx ry rz
   end
   begin
      id 28
      name RightLeg
      direction 0.000000 -1.000000 0.000000
      length 17.389183
      axis 0.0 0.0 0.0 xyz
      dof rx ry rz
   end
   begin
      id 29
      name RightFoot
      direction 0.000000 -0.258819 0.965926
      length 4.924528
      axis 15.0 0.0 0.0 xyz
      dof rx ry rz
   end
   begin
      id 30
      name RightToeBase
      direction 0.000000 0.000000 1.000000
      length 2.952750
      axis 0.0 0.0 0.0 xyz
      dof rx ry rz
   end
:hierarchy
   begin
      root Spine_dum LeftUpLeg_dum RightUpLeg_dum
      Spine_dum Spine
      LeftUpLeg_dum LeftUpLeg
      RightUpLeg_dum RightUpLeg
      Spine Spine_dum1 Spine_dum2 Spine_dum3
      Spine_dum1 Head
      Spine_dum2 LeftShoulder
      Spine_dum3 RightShoulder
      LeftShoulder LeftArm
      LeftArm LeftForeArm
      LeftForeArm LeftHand
      LeftHand LeftHand_dum1 LeftHand_dum2
      LeftHand_dum1 LeftHandThumb1
      RightShoulder RightArm
      RightArm RightForeArm
      RightForeArm RightHand
      RightHand RightHand_dum1 RightHand_dum2
      RightHand_dum1 RightHandThumb1
      LeftUpLeg LeftLeg
      LeftLeg LeftFoot
      LeftFoot LeftToeBase
      RightUpLeg RightLeg
      RightLeg RightFoot
      RightFoot RightToeBase
   end

# File created by Blade
# Date/Time:  Wed Jan 21 14:58:10 2015
# Frame Rate: 120.000 fps
#------------------------------------------------------
:FULLY-SPECIFIED
:DEGREES
112
root 17.749465 35.252244 -23.255895 -170.438216 -27.059549 -181.139878
Spine -21.060014 17.083728 -6.946050
Head 14.374374 14.026398 6.032501
LeftShoulder -14.462027 -33.545161 23.980325
LeftArm -0.413764 4.879099 -5.261509
LeftForeArm 12.242591 0.000000 -2.406312
LeftHand -5.901803 -0.000000 -10.487963
LeftHandThumb1 -26.253704 0.000000 33.147579
RightShoulder -10.663240 -2.070224 -12.139038
RightArm 7.542016 34.100312 9.304322
RightForeArm -35.888332 0.000000 5.195528
RightHand -5.997979 -0.000000 10.039074
RightHandThumb1 -24.326973 -0.000000 -32.862282
LeftUpLeg -6.295017 -11.040045 6.438342
LeftLeg -4.949871 -0.000000 0.000000
LeftFoot -16.899242 20.729781 -11.488047
LeftToeBase 28.346551 -0.000000 -0.000000
RightUpLeg 3.997640 -23.442526 -1.118809
RightLeg -4.841777 -0.000000 0.000000
RightFoot -25.959557 -28.583982 22.294886
RightToeBase 21.249376 -0.000000 -0.000000
113
root 17.739263 35.251164 -23.260983 -170.388071 -27.411697 -181.208711
Spine -21.206994 17.490061 -7.169384
Head 14.419663 13.974647 6.107827
LeftShoulder -14.463783 -33.466858 24.049764
LeftArm -0.508102 4.871181 -5.280609
LeftForeArm 12.289639 -0.000000 -2.393933
LeftHand -5.781569 -0.000000 -10.609168
LeftHandThumb1 -26.253704 0.000000 33.147579
RightShoulder -10.674459 -2.023976 -12.129978
RightArm 7.621128 34.062935 9.349800
RightForeArm -35.791028 0.000000 5.189778
RightHand -6.061814 -0.000000 10.180468
RightHandThumb1 -24.326973 -0.000000 -32.862282
LeftUpLeg -6.395450 -11.304737 6.427874
LeftLeg -4.921381 -0.000000 0.000000
LeftFoot -16.853421 20.655395 -11.474777
LeftToeBase 28.332761 -0.000000 -0.000000
RightUpLeg 4.062026 -23.666738 -1.143358
RightLeg -4.869605 -0.000000 0.000000
RightFoot -26.043831 -28.719357 22.309301
RightToeBase 21.324057 -0.000000 -0.000000
114
root 17.728532 35.249487 -23.268369 -170.353353 -27.745912 -181.288338
Spine -21.362248 17.876496 -7.399658
Head 14.565011 14.019592 6.254867
LeftShoulder -14.429100 -33.368067 24.112873
LeftArm -0.620327 4.794265 -5.289393
LeftForeArm 12.296914 -0.000000 -2.418767
LeftHand -5.860810 0.000000 -10.603829
LeftHandThumb1 -26.253704 0.000000 33.147579
RightShoulder -10.570829 -1.959515 -12.130515
RightArm 7.583525 34.034835 9.371624
RightForeArm -35.845511 -0.000000 5.244394
RightHand -6.240176 -0.000000 10.148046
RightHandThumb1 -24.326973 -0.000000 -32.862282
LeftUpLeg -6.454350 -11.562911 6.402728
LeftLeg -4.917988 -0.000000 0.000000
LeftFoot -16.800673 20.579978 -11.480432
LeftToeBase 28.320907 -0.000000 -0.000000
RightUpLeg 4.144085 -23.827219 -1.188414
RightLeg -4.890576 -0.000000 0.000000
RightFoot -26.138093 -28.843559 22.458405
RightToeBase 21.157887 -0.000000 -0.000000
115
root 17.718753 35.248636 -23.276508 -170.307553 -28.057196 -181.366769
Spine -21.512046 18.302752 -7.650693
Head 14.641404 14.065739 6.401230
LeftShoulder -14.412828 -33.322191 24.200276
LeftArm -0.764891 4.714591 -5.301185
LeftForeArm 12.414230 -0.000000 -2.390952
LeftHand -5.888213 -0.000000 -10.498723
LeftHandThumb1 -26.253704 0.000000 33.147579
RightShoulder -10.543274 -1.861178 -12.112353
RightArm 7.607807 33.877696 9.384991
RightForeArm -35.744826 -0.000000 5.240311
RightHand -6.335632 -0.000000 10.135763
RightHandThumb1 -24.326973 -0.000000 -32.862282
LeftUpLeg -6.514328 -11.797041 6.378326
LeftLeg -4.921307 -0.000000 0.000000
LeftFoot -16.744525 20.498569 -11.494913
LeftToeBase 28.343005 -0.000000 -0.000000
RightUpLeg 4.207176 -23.969814 -1.229442
RightLeg -4.893799 -0.000000 0.000000
RightFoot -26.234222 -28.994126 22.493815
RightToeBase 21.181979 -0.000000 -0.000000
116
root 17.704109 35.246977 -23.286076 -170.260259 -28.391163 -181.450167
Spine -21.658143 18.684575 -7.890215
Head 14.685543 14.137975 6.553579
LeftShoulder -14.492795 -33.205481 24.315012
LeftArm -0.790438 4.679089 -5.330641
LeftForeArm 12.408463 -0.000000 -2.430101
LeftHand -5.821402 0.000000 -10.569240
LeftHandThumb1 -26.253704 0.000000 33.147579
RightShoulder -10.483617 -1.753344 -12.096277
RightArm 7.584406 33.822591 9.359694
RightForeArm -35.741205 -0.000000 5.222306
RightHand -6.190647 0.000000 10.227075
RightHandThumb1 -24.326973 -0.000000 -32.862282
LeftUpLeg -6.574914 -12.047466 6.346764
LeftLeg -4.922907 -0.000000 0.000000
LeftFoot -16.691366 20.419073 -11.487223
LeftToeBase 28.352539 -0.000000 -0.000000
RightUpLeg 4.296607 -24.119799 -1.284639
RightLeg -4.915998 -0.000000 0.000000
RightFoot -26.320348 -29.097357 22.591663
RightToeBase 21.224897 -0.000000 -0.000000
117
root 17.694176 35.245825 -23.293582 -170.211454 -28.719821 -181.520290
Spine -21.818287 19.108813 -8.144861
Head 14.677160 14.054722 6.640164
LeftShoulder -14.513224 -33.126917 24.414051
LeftArm -0.841741 4.633122 -5.368844
LeftForeArm 12.516512 -0.000000 -2.457354
LeftHand -5.744096 -0.000000 -10.624573
LeftHandThumb1 -26.253704 0.000000 33.147579
RightShoulder -10.473619 -1.718664 -12.075318
RightArm 7.609954 33.890287 9.399047
RightForeArm -35.886501 -0.000000 5.195822
RightHand -6.067273 -0.000000 10.271390
RightHandThumb1 -24.326973 -0.000000 -32.862282
LeftUpLeg -6.656953 -12.329933 6.343188
LeftLeg -4.906643 -0.000000 0.000000
LeftFoot -16.650975 20.371456 -11.503965
LeftToeBase 28.310238 -0.000000 -0.000000
RightUpLeg 4.359966 -24.269478 -1.313060
RightLeg -4.931438 -0.000000 0.000000
RightFoot -26.410990 -29.206739 22.697125
RightToeBase 21.178938 -0.000000 -0.000000
118
root 17.684903 35.244428 -23.301778 -170.164132 -29.060030 -181.588835
Spine -21.988703 19.551409 -8.406646
Head 14.731945 14.016920 6.773079
LeftShoulder -14.472524 -33.026123 24.468011
LeftArm -0.902799 4.532449 -5.389746
LeftForeArm 12.469639 -0.000000 -2.458018
LeftHand -5.829455 -0.000000 -10.579829
LeftHandThumb1 -26.253704 0.000000 33.147579
RightShoulder -10.513531 -1.755327 -12.046300
RightArm 7.719147 33.875072 9.475501
RightForeArm -35.805631 -0.000000 5.149265
RightHand -6.100616 -0.000000 10.217331
RightHandThumb1 -24.326973 -0.000000 -32.862282
LeftUpLeg -6.743510 -12.616162 6.345057
LeftLeg -4.884719 -0.000000 0.000000
LeftFoot -16.622334 20.305497 -11.520107
LeftToeBase 28.335959 -0.000000 -0.000000
RightUpLeg 4.431593 -24.459723 -1.332625
RightLeg -4.969372 -0.000000 0.000000
RightFoot -26.489363 -29.346559 22.794335
RightToeBase 21.155507 -0.000000 -0.000000
119
root 17.673540 35.243003 -23.311514 -170.133009 -29.374677 -181.668920
Spine -22.135575 19.996024 -8.678164
Head 14.750546 13.961164 6.884082
LeftShoulder -14.470670 -32.820803 24.536571
LeftArm -0.932838 4.367290 -5.431439
LeftForeArm 12.532864 -0.000000 -2.489408
LeftHand -5.796939 -0.000000 -10.649700
LeftHandThumb1 -26.253704 0.000000 33.147579
RightShoulder -10.450970 -1.662267 -12.016605
RightArm 7.658625 33.786399 9.447054
RightForeArm -35.784876 0.000000 5.112951
RightHand -6.118831 -0.000000 10.166873
RightHandThumb1 -24.326973 -0.000000 -32.862282
LeftUpLeg -6.792179 -12.864893 6.319932
LeftLeg -4.872211 -0.000000 0.000000
LeftFoot -16.576472 20.232866 -11.518995
LeftToeBase 28.326708 -0.000000 -0.000000
RightUpLeg 4.527931 -24.583000 -1.386032
RightLeg -4.979208 -0.000000 0.000000
RightFoot -26.578387 -29.459407 22.876715
RightToeBase 21.137293 -0.000000 -0.000000
120
root 17.660144 35.242039 -23.323250 -170.118758 -29.670460 -181.751101
Spine -22.247404 20.429047 -8.932346
Head 14.777524 14.061432 7.047854
LeftShoulder -14.565570 -32.851599 24.681626
LeftArm -0.973605 4.528632 -5.447722
LeftForeArm 12.484928 -0.000000 -2.493590
LeftHand -5.769402 -0.000000 -10.745219
LeftHandThumb1 -26.253704 0.000000 33.147579
RightShoulder -10.436114 -1.698549 -11.961150
RightArm 7.755721 33.870111 9.508197
RightForeArm -35.802780 -0.000000 5.075792
RightHand -6.189360 -0.000000 10.009799
RightHandThumb1 -24.326973 -0.000000 -32.862282
LeftUpLeg -6.807988 -13.108611 6.285191
LeftLeg -4.870773 -0.000000 0.000000
LeftFoot -16.539899 20.172118 -11.536398
LeftToeBase 28.322252 -0.000000 -0.000000
RightUpLeg 4.645341 -24.745890 -1.456877
RightLeg -4.995296 -0.000000 0.000000
RightFoot -26.639192 -29.532644 22.939244
RightToeBase 21.169902 -0.000000 -0.000000
121
root 17.648636 35.240710 -23.336483 -170.102441 -29.973219 -181.825956
Spine -22.407270 20.930290 -9.232014
Head 14.813625 13.992676 7.209070
LeftShoulder -14.478452 -32.660991 24.719128
LeftArm -1.054141 4.485340 -5.479456
LeftForeArm 12.393914 -0.000000 -2.477726
LeftHand -5.681598 -0.000000 -10.805558
LeftHandThumb1 -26.253704 0.000000 33.147579
RightShoulder -10.448580 -1.685945 -11.901989
RightArm 7.753795 33.819650 9.504752
RightForeArm -35.706625 0.000000 5.072423
RightHand -6.297733 -0.000000 10.022460
RightHandThumb1 -24.326973 -0.000000 -32.862282
LeftUpLeg -6.827504 -13.360152 6.264189
LeftLeg -4.873665 -0.000000 0.000000
LeftFoot -16.492798 20.111050 -11.562940
LeftToeBase 28.270497 -0.000000 -0.000000
RightUpLeg 4.760835 -24.840074 -1.508692
RightLeg -5.017346 -0.000000 0.000000
RightFoot -26.743343 -29.682940 23.074638
RightToeBase 20.975970 -0.000000 -0.000000
